<svg xmlns="http://www.w3.org/2000/svg" viewBox="0 0 490 186" width="490" height="186" role="img" aria-labelledby="t d">
<title id="t">ATT&amp;CK Detection Lab</title>
<desc id="d">Wazuh SIEM on Proxmox: emulate ATT&amp;CK techniques, then write and tune detections for each one. Stack: Wazuh, Proxmox, MITRE ATT&amp;CK. Status: in progress.</desc>
<defs></defs>
<style>
text{font-family:'Segoe UI','Helvetica Neue',Arial,sans-serif}
.m{font-family:'SFMono-Regular',Menlo,Consolas,'Liberation Mono','Courier New',monospace}
@keyframes on{to{opacity:1}}
@keyframes blink{0%,49%{opacity:1}50%,100%{opacity:0}}
@keyframes spin{to{transform:rotate(360deg)}}
@keyframes pulse{0%{opacity:.15}50%{opacity:1}100%{opacity:.15}}
@keyframes ping{0%{transform:scale(.4);opacity:.9}100%{transform:scale(2.4);opacity:0}}
@media (prefers-reduced-motion: reduce){*{animation:none!important}.c{opacity:1!important}}
</style>
<rect x=".5" y=".5" width="489" height="185" rx="10" fill="#0C1424" stroke="#1D2B47"/><rect x="0" y="16" width="3" height="154" rx="1.5" fill="#FFB547"/><rect x="22" y="22" width="40" height="40" rx="9" fill="#111C31" stroke="#1D2B47"/><g transform="translate(24,24)"><path d="M18 6L28.4 12V24L18 30L7.6 24V12Z" fill="none" stroke="#FFB547" stroke-width="1.7" stroke-linejoin="round"/><circle cx="18" cy="18" r="3.4" fill="#FFB547"/><path d="M18 6V14.6M28.4 24L21 19.7M7.6 24L15 19.7" stroke="#FFB547" stroke-opacity=".6" stroke-width="1.3"/></g><text x="76" y="38" font-size="19" font-weight="700" fill="#E6EEFB">ATT&amp;CK Detection Lab</text><text class="m" x="76" y="57" font-size="12" fill="#8FA3C4">emulation and detection, home lab</text><rect x="370.1" y="20" width="103.9" height="22" rx="11" fill="none" stroke="#FFB547" stroke-opacity=".7"/><circle cx="382.1" cy="31" r="3" fill="#FFB547"/><text class="m" x="391.1" y="35" font-size="11.5" fill="#FFB547">in progress</text><text x="22" y="94" font-size="14" fill="#8FA3C4">Wazuh SIEM on Proxmox: emulate ATT&amp;CK techniques,</text><text x="22" y="115" font-size="14" fill="#8FA3C4">then write and tune detections for each one.</text><rect x="22" y="142" width="54" height="24" rx="6" fill="none" stroke="#FFB547" stroke-opacity=".55"/><text class="m" x="49" y="158" font-size="11.5" fill="#E6EEFB" text-anchor="middle">Wazuh</text><rect x="84.5" y="142" width="68" height="24" rx="6" fill="none" stroke="#FFB547" stroke-opacity=".55"/><text class="m" x="119" y="158" font-size="11.5" fill="#E6EEFB" text-anchor="middle">Proxmox</text><rect x="160.8" y="142" width="103" height="24" rx="6" fill="none" stroke="#FFB547" stroke-opacity=".55"/><text class="m" x="212" y="158" font-size="11.5" fill="#E6EEFB" text-anchor="middle">MITRE ATT&amp;CK</text>
</svg>
